<svg version="1.1" xmlns="http://www.w3.org/2000/svg" xmlns:xlink="http://www.w3.org/1999/xlink"
	 viewBox="0 1.5 78.3 69.6">
<symbol id="l" viewBox="-9.3 -17.3 18.5 34.7">
	<path d="M9.2,2.2C8.5,10.8,1.4,17.3-7.2,17.3h-2.1V-0.8c0-2.4,0.5-4.8,1.5-7C-7.4-7.9-7-8.1-6.6-8.4l0,0l15.6-9h0.2
		V0.8l0,0C9.3,1.3,9.2,1.8,9.2,2.2z M5.6-13.7C-0.8-12.8-5.6-7.3-5.6-0.8v14.4C0.8,12.8,5.6,7.3,5.6,0.8V-13.7z"/>
</symbol>
<use xlink:href="#l" width="18.5" height="34.7" x="-9.3" y="-17.3" transform="matrix(1 0 0 -1 30.3889 18.94)"/>
<use xlink:href="#l" width="18.5" height="34.7" x="-9.3" y="-17.3" transform="matrix(0.5 0.866 0.866 -0.5 49.9617 19.7514)"/>
<use xlink:href="#l" width="18.5" height="34.7" x="-9.3" y="-17.3" transform="matrix(-0.5 0.866 0.866 0.5 59.0129 37.1569)"/>
<use xlink:href="#l" width="18.5" height="34.7" x="-9.3" y="-17.3" transform="matrix(-1 0 0 1 48.8571 53.71)"/>
<use xlink:href="#l" width="18.5" height="34.7" x="-9.3" y="-17.3" transform="matrix(-0.5 -0.866 -0.866 0.5 29.2286 53.075)"/>
<use xlink:href="#l" width="18.5" height="34.7" x="-9.3" y="-17.3" transform="matrix(0.5 -0.866 -0.866 -0.5 20.121 35.6248)"/>
</svg>
