<svg version="1.1" xmlns="http://www.w3.org/2000/svg" xmlns:xlink="http://www.w3.org/1999/xlink"
	 viewBox="0 0 393.8 72.8">
<symbol id="a" viewBox="-19.3 -23.4 38.6 46.7">
	<path d="M-5.8-23.4c-1.8,0-3.6,0.2-5.3,0.8c-1.6,0.5-3,1.3-4.3,2.4s-2.2,2.5-2.9,4.1c-0.7,1.9-1.1,3.9-1,5.9
		C-19.4-8.1-19-5.9-18.1-4c0.7,1.5,1.8,2.9,3.1,3.9s2.7,1.7,4.2,2.2C-9.2,2.6-7.6,3-5.9,3.3c1.6,0.2,3.2,0.5,4.8,0.6
		C0.3,4,1.7,4.3,3.1,4.7C4.2,5,5.2,5.5,6,6.2C6.8,7,7.1,8,7,9.1c0,1.1-0.2,2.1-0.6,3.1c-0.3,0.7-0.9,1.4-1.5,1.8
		c-0.7,0.4-1.4,0.7-2.2,0.9c-0.9,0.1-1.8,0.2-2.7,0.2c-1.8,0.1-3.6-0.4-5.1-1.5c-1.2-1-1.9-2.7-2.1-5.1h-10.9
		c0.1,2.5,0.7,4.9,1.9,7.1c1.1,1.8,2.5,3.4,4.3,4.6s3.7,2,5.8,2.4c2.2,0.5,4.4,0.7,6.6,0.7c2,0,4-0.2,6-0.5s3.8-0.9,5.6-1.8
		c1.7-0.9,3.1-2.2,4.1-3.9c1.1-1.9,1.7-4.2,1.6-6.4v-23.1c0-1.9,0.1-3.8,0.4-5.7c0.1-1.4,0.5-2.8,1.1-4.1H8.2
		C8-21.4,7.8-20.7,7.7-20s-0.2,1.4-0.3,2.2c-1.6-1.9-3.7-3.4-6.1-4.2C-1-23-3.4-23.4-5.8-23.4z M-1.8-15.4c1.7-0.1,3.5,0.3,5,1.2
		c1.1,0.7,2,1.7,2.6,2.9c0.5,1.1,0.9,2.2,1,3.4C6.9-7,7-6.1,7-5.2v4.6C6.5-1.1,6-1.5,5.3-1.7C4.6-2,3.9-2.2,3.1-2.3
		C2.3-2.5,1.4-2.6,0.6-2.8S-1.2-3-2-3.2c-0.8-0.2-1.7-0.4-2.4-0.7s-1.4-0.7-2-1.2s-1.1-1.1-1.4-1.8c-0.4-0.9-0.6-1.9-0.5-2.8
		c0-1,0.1-1.9,0.5-2.8c0.3-0.7,0.8-1.3,1.5-1.7c0.6-0.4,1.4-0.7,2.1-0.9S-2.6-15.3-1.8-15.4L-1.8-15.4z"/>
</symbol>
<symbol id="l" viewBox="-9.3 -17.3 18.5 34.7">
	<path d="M9.2,2.2C8.5,10.8,1.4,17.3-7.2,17.3h-2.1V-0.8c0-2.4,0.5-4.8,1.5-7C-7.4-7.9-7-8.1-6.6-8.4l0,0l15.6-9h0.2
		V0.8l0,0C9.3,1.3,9.2,1.8,9.2,2.2z M5.6-13.7C-0.8-12.8-5.6-7.3-5.6-0.8v14.4C0.8,12.8,5.6,7.3,5.6,0.8V-13.7z"/>
</symbol>
<path id="t" d="M108.8,25.5h-13v-9.2h36.9v9.2h-13v35.1h-10.9C108.8,60.6,108.8,25.5,108.8,25.5z"/>
<use xlink:href="#a"  width="38.6" height="46.7" x="-19.3" y="-23.4" transform="matrix(1 0 0 -1 154.352 38.3944)"/>
<path id="p" d="M179.4,16.3h36.4v44.3h-10.9V25.5h-14.6v35.1h-10.9V16.3z"/>
<use xlink:href="#a"  width="38.6" height="46.7" x="-19.3" y="-23.4" transform="matrix(1 0 0 -1 241.1632 38.3888)"/>
<path id="n" d="M265.9,16.3h10.9v16.1h15.4V16.3H303v44.3h-10.9V42h-15.4v18.6h-10.9L265.9,16.3L265.9,16.3z"/>
<path id="d" d="M306.6,51.4h4.8c0.7-1.5,1.2-3.1,1.7-4.7c0.6-1.9,1.1-4,1.6-6.3s0.9-4.9,1.2-7.6c0.3-2.9,0.5-5.8,0.5-8.7v-7.8H348
	v35.1h5.1v21.3h-10.2V60.6h-26.1v12.2h-10.2V51.4z M337.1,51.4v-26h-10.7v1.1c0,2.6-0.1,5.3-0.4,7.9c-0.3,2.5-0.7,4.8-1.1,7
	c-0.5,2.2-0.9,4.1-1.5,5.8c-0.5,1.7-1,3.1-1.5,4.3L337.1,51.4z"/>
<use xlink:href="#a" width="38.6" height="46.7" x="-19.3" y="-23.4" transform="matrix(1 0 0 -1 374.2409 39.1722)"/>
<use xlink:href="#l" width="18.5" height="34.7" x="-9.3" y="-17.3" transform="matrix(1 0 0 -1 30.3889 18.94)"/>
<use xlink:href="#l" width="18.5" height="34.7" x="-9.3" y="-17.3" transform="matrix(0.5 0.866 0.866 -0.5 49.9617 19.7514)"/>
<use xlink:href="#l" width="18.5" height="34.7" x="-9.3" y="-17.3" transform="matrix(-0.5 0.866 0.866 0.5 59.0129 37.1569)"/>
<use xlink:href="#l" width="18.5" height="34.7" x="-9.3" y="-17.3" transform="matrix(-1 0 0 1 48.8571 53.71)"/>
<use xlink:href="#l" width="18.5" height="34.7" x="-9.3" y="-17.3" transform="matrix(-0.5 -0.866 -0.866 0.5 29.2286 53.075)"/>
<use xlink:href="#l" width="18.5" height="34.7" x="-9.3" y="-17.3" transform="matrix(0.5 -0.866 -0.866 -0.5 20.121 35.6248)"/>
</svg>
